<mxfile host="app.diagrams.net" modified="2020-10-10T06:09:21.479Z" agent="5.0 (Windows NT 6.1; Win64; x64) AppleWebKit/537.36 (KHTML, like Gecko) Chrome/77.0.3865.90 Safari/537.36" etag="VHuy_8VXDcfOn86Y8l-z" version="13.6.9" type="github">
  <diagram name="Page-1" id="e3a06f82-3646-2815-327d-82caf3d4e204">
    <mxGraphModel dx="1422" dy="794" grid="1" gridSize="10" guides="1" tooltips="1" connect="1" arrows="1" fold="1" page="1" pageScale="1.5" pageWidth="1169" pageHeight="826" background="none" math="0" shadow="0">
      <root>
        <mxCell id="0" style=";html=1;" />
        <mxCell id="1" style=";html=1;" parent="0" />
        <mxCell id="6a7d8f32e03d9370-62" value="P3 Protocol&amp;nbsp;" style="text;strokeColor=none;fillColor=none;html=1;fontSize=24;fontStyle=1;verticalAlign=middle;align=center;" parent="1" vertex="1">
          <mxGeometry x="446" y="10" width="861" height="40" as="geometry" />
        </mxCell>
        <mxCell id="3EZreSLTTAOOriSmL6ER-1" value="" style="verticalLabelPosition=bottom;aspect=fixed;html=1;verticalAlign=top;strokeColor=none;align=center;outlineConnect=0;shape=mxgraph.citrix.netscaler_vpx;" vertex="1" parent="1">
          <mxGeometry x="700" y="120.25" width="97" height="36" as="geometry" />
        </mxCell>
        <mxCell id="3EZreSLTTAOOriSmL6ER-4" value="PowerPoort 1500" style="text;html=1;resizable=0;autosize=1;align=center;verticalAlign=middle;points=[];fillColor=none;strokeColor=none;rounded=0;" vertex="1" parent="1">
          <mxGeometry x="693.5" y="180" width="110" height="20" as="geometry" />
        </mxCell>
        <mxCell id="3EZreSLTTAOOriSmL6ER-7" value="" style="verticalLabelPosition=bottom;aspect=fixed;html=1;verticalAlign=top;strokeColor=none;align=center;outlineConnect=0;shape=mxgraph.citrix.laptop_2;" vertex="1" parent="1">
          <mxGeometry x="330" y="95" width="116" height="86.5" as="geometry" />
        </mxCell>
        <mxCell id="3EZreSLTTAOOriSmL6ER-8" value="P3 PC" style="text;html=1;resizable=0;autosize=1;align=center;verticalAlign=middle;points=[];fillColor=none;strokeColor=none;rounded=0;" vertex="1" parent="1">
          <mxGeometry x="366" y="186.5" width="50" height="20" as="geometry" />
        </mxCell>
        <mxCell id="3EZreSLTTAOOriSmL6ER-9" value="" style="endArrow=classic;startArrow=classic;html=1;" edge="1" parent="1" source="3EZreSLTTAOOriSmL6ER-7" target="3EZreSLTTAOOriSmL6ER-1">
          <mxGeometry width="50" height="50" relative="1" as="geometry">
            <mxPoint x="490" y="190" as="sourcePoint" />
            <mxPoint x="540" y="140" as="targetPoint" />
          </mxGeometry>
        </mxCell>
        <mxCell id="3EZreSLTTAOOriSmL6ER-10" value="Eth Cable" style="text;html=1;resizable=0;autosize=1;align=center;verticalAlign=middle;points=[];fillColor=none;strokeColor=none;rounded=0;" vertex="1" parent="1">
          <mxGeometry x="540" y="120.25" width="70" height="20" as="geometry" />
        </mxCell>
        <mxCell id="3EZreSLTTAOOriSmL6ER-11" value="" style="verticalLabelPosition=bottom;aspect=fixed;html=1;verticalAlign=top;strokeColor=none;align=center;outlineConnect=0;shape=mxgraph.citrix.tablet_2;" vertex="1" parent="1">
          <mxGeometry x="950" y="95" width="82" height="86" as="geometry" />
        </mxCell>
        <mxCell id="3EZreSLTTAOOriSmL6ER-12" value="VDO Fatron 1" style="text;html=1;resizable=0;autosize=1;align=center;verticalAlign=middle;points=[];fillColor=none;strokeColor=none;rounded=0;" vertex="1" parent="1">
          <mxGeometry x="946" y="194.5" width="90" height="20" as="geometry" />
        </mxCell>
        <mxCell id="3EZreSLTTAOOriSmL6ER-13" value="" style="verticalLabelPosition=bottom;aspect=fixed;html=1;verticalAlign=top;strokeColor=none;align=center;outlineConnect=0;shape=mxgraph.citrix.tablet_2;" vertex="1" parent="1">
          <mxGeometry x="1204" y="95" width="82" height="86" as="geometry" />
        </mxCell>
        <mxCell id="3EZreSLTTAOOriSmL6ER-14" value="VDO Fatron 1" style="text;html=1;resizable=0;autosize=1;align=center;verticalAlign=middle;points=[];fillColor=none;strokeColor=none;rounded=0;" vertex="1" parent="1">
          <mxGeometry x="1200" y="194.5" width="90" height="20" as="geometry" />
        </mxCell>
        <mxCell id="3EZreSLTTAOOriSmL6ER-15" value="" style="endArrow=classic;startArrow=classic;html=1;entryX=0;entryY=0.479;entryDx=0;entryDy=0;entryPerimeter=0;" edge="1" parent="1" source="3EZreSLTTAOOriSmL6ER-1" target="3EZreSLTTAOOriSmL6ER-11">
          <mxGeometry width="50" height="50" relative="1" as="geometry">
            <mxPoint x="910" y="370" as="sourcePoint" />
            <mxPoint x="940" y="130" as="targetPoint" />
          </mxGeometry>
        </mxCell>
        <mxCell id="3EZreSLTTAOOriSmL6ER-16" value="" style="endArrow=classic;startArrow=classic;html=1;" edge="1" parent="1" source="3EZreSLTTAOOriSmL6ER-11" target="3EZreSLTTAOOriSmL6ER-13">
          <mxGeometry width="50" height="50" relative="1" as="geometry">
            <mxPoint x="1033" y="150" as="sourcePoint" />
            <mxPoint x="960" y="320" as="targetPoint" />
          </mxGeometry>
        </mxCell>
        <mxCell id="3EZreSLTTAOOriSmL6ER-17" value="DMX Cable" style="text;html=1;resizable=0;autosize=1;align=center;verticalAlign=middle;points=[];fillColor=none;strokeColor=none;rounded=0;" vertex="1" parent="1">
          <mxGeometry x="837" y="120.25" width="80" height="20" as="geometry" />
        </mxCell>
        <mxCell id="3EZreSLTTAOOriSmL6ER-18" value="DMX Cable" style="text;html=1;resizable=0;autosize=1;align=center;verticalAlign=middle;points=[];fillColor=none;strokeColor=none;rounded=0;" vertex="1" parent="1">
          <mxGeometry x="1085" y="120" width="80" height="20" as="geometry" />
        </mxCell>
      </root>
    </mxGraphModel>
  </diagram>
</mxfile>
